<svg width="157" height="16" viewBox="0 0 157 16" fill="none" xmlns="http://www.w3.org/2000/svg">
<path d="M6.656 0.752C7.456 0.752 8.20267 0.896 8.896 1.184C9.58933 1.46133 10.1973 1.856 10.72 2.368C11.2533 2.88 11.664 3.488 11.952 4.192C12.2507 4.88533 12.4 5.648 12.4 6.48C12.4 7.312 12.2507 8.08 11.952 8.784C11.664 9.47733 11.2533 10.08 10.72 10.592C10.1973 11.104 9.58933 11.504 8.896 11.792C8.20267 12.0693 7.456 12.208 6.656 12.208C5.84533 12.208 5.09333 12.0693 4.4 11.792C3.70667 11.504 3.09867 11.104 2.576 10.592C2.05333 10.08 1.64267 9.47733 1.344 8.784C1.04533 8.08 0.896 7.312 0.896 6.48C0.896 5.648 1.04533 4.88533 1.344 4.192C1.64267 3.488 2.05333 2.88 2.576 2.368C3.09867 1.856 3.70667 1.46133 4.4 1.184C5.09333 0.896 5.84533 0.752 6.656 0.752ZM6.72 2.96C7.232 2.96 7.64267 2.976 7.952 3.008C8.26133 3.04 8.576 3.09867 8.896 3.184L8.752 4.032C8.41067 4.02133 8.096 4.016 7.808 4.016C7.53067 4.00533 7.16267 4 6.704 4C6.224 4 5.84533 4.07467 5.568 4.224C5.29067 4.37333 5.09333 4.624 4.976 4.976C4.86933 5.328 4.816 5.81867 4.816 6.448C4.816 7.06667 4.86933 7.55733 4.976 7.92C5.09333 8.272 5.29067 8.52267 5.568 8.672C5.84533 8.82133 6.224 8.896 6.704 8.896C7.20533 8.896 7.62133 8.896 7.952 8.896C8.28267 8.88533 8.61333 8.85867 8.944 8.816L9.056 9.68C8.71467 9.76533 8.368 9.82933 8.016 9.872C7.67467 9.91467 7.24267 9.936 6.72 9.936C5.96267 9.936 5.35467 9.824 4.896 9.6C4.43733 9.36533 4.10667 8.99733 3.904 8.496C3.70133 7.984 3.6 7.30133 3.6 6.448C3.6 5.59467 3.70133 4.912 3.904 4.4C4.10667 3.888 4.43733 3.52 4.896 3.296C5.35467 3.072 5.96267 2.96 6.72 2.96ZM6.64 1.568C5.968 1.568 5.33333 1.69067 4.736 1.936C4.14933 2.17067 3.62667 2.512 3.168 2.96C2.72 3.408 2.368 3.93067 2.112 4.528C1.856 5.11467 1.728 5.76533 1.728 6.48C1.728 7.184 1.856 7.83467 2.112 8.432C2.368 9.02933 2.72 9.552 3.168 10C3.62667 10.448 4.14933 10.7947 4.736 11.04C5.33333 11.2747 5.968 11.392 6.64 11.392C7.32267 11.392 7.96267 11.2747 8.56 11.04C9.15733 10.7947 9.68 10.448 10.128 10C10.576 9.552 10.928 9.02933 11.184 8.432C11.44 7.83467 11.568 7.184 11.568 6.48C11.568 5.76533 11.44 5.11467 11.184 4.528C10.928 3.93067 10.576 3.408 10.128 2.96C9.68 2.512 9.15733 2.17067 8.56 1.936C7.96267 1.69067 7.32267 1.568 6.64 1.568ZM22.2931 0.959999C22.4318 0.959999 22.5545 1.00267 22.6611 1.088C22.7678 1.16267 22.8425 1.264 22.8851 1.392L26.3731 12H24.7091L21.9571 3.12C21.9145 2.96 21.8718 2.8 21.8291 2.64C21.7865 2.48 21.7438 2.33067 21.7011 2.192H21.2531C21.2105 2.33067 21.1678 2.48 21.1251 2.64C21.0825 2.8 21.0345 2.96 20.9811 3.12L18.2291 12H16.5811L20.0691 1.392C20.1118 1.264 20.1865 1.16267 20.2931 1.088C20.3998 1.00267 20.5225 0.959999 20.6611 0.959999H22.2931ZM24.2771 7.312V8.64H18.6451V7.312H24.2771ZM29.252 0.799999L29.236 9.776C29.236 10.1067 29.3267 10.3573 29.508 10.528C29.7 10.6987 29.9613 10.784 30.292 10.784H31.028L31.204 11.92C31.0973 11.9733 30.948 12.016 30.756 12.048C30.5747 12.08 30.3827 12.1013 30.18 12.112C29.988 12.1333 29.8227 12.144 29.684 12.144C29.0867 12.144 28.6067 11.9733 28.244 11.632C27.892 11.2907 27.716 10.7947 27.716 10.144V0.799999H29.252ZM34.0958 0.799999L34.0798 9.776C34.0798 10.1067 34.1704 10.3573 34.3518 10.528C34.5438 10.6987 34.8051 10.784 35.1358 10.784H35.8718L36.0477 11.92C35.9411 11.9733 35.7918 12.016 35.5998 12.048C35.4184 12.08 35.2264 12.1013 35.0238 12.112C34.8318 12.1333 34.6664 12.144 34.5278 12.144C33.9304 12.144 33.4504 11.9733 33.0878 11.632C32.7358 11.2907 32.5598 10.7947 32.5598 10.144V0.799999H34.0958ZM44.5758 0.815999C45.4504 0.815999 46.1544 0.911999 46.6878 1.104C47.2318 1.28533 47.6264 1.61067 47.8718 2.08C48.1171 2.53867 48.2398 3.184 48.2398 4.016C48.2398 4.60267 48.1704 5.09333 48.0318 5.488C47.8931 5.88267 47.6744 6.192 47.3758 6.416C47.0878 6.64 46.6931 6.784 46.1918 6.848V6.928C46.3731 6.97067 46.5544 7.056 46.7358 7.184C46.9171 7.312 47.0878 7.488 47.2478 7.712C47.4078 7.92533 47.5251 8.19733 47.5998 8.528L48.6398 12H46.9438L45.9838 8.56C45.8558 8.15467 45.6798 7.86667 45.4558 7.696C45.2318 7.52533 44.9384 7.44 44.5758 7.44C43.9038 7.44 43.3278 7.44 42.8478 7.44C42.3678 7.42933 41.9624 7.41867 41.6318 7.408C41.3118 7.39733 41.0504 7.392 40.8478 7.392L40.8958 6.112H44.5438C45.0664 6.10133 45.4771 6.04267 45.7758 5.936C46.0744 5.81867 46.2878 5.616 46.4158 5.328C46.5544 5.04 46.6238 4.63467 46.6238 4.112C46.6238 3.58933 46.5544 3.18933 46.4158 2.912C46.2878 2.624 46.0744 2.42667 45.7758 2.32C45.4771 2.20267 45.0664 2.144 44.5438 2.144C43.6478 2.144 42.8744 2.14933 42.2238 2.16C41.5731 2.17067 41.1358 2.176 40.9118 2.176L40.6878 0.959999C41.0931 0.917333 41.4771 0.885333 41.8398 0.863999C42.2024 0.842666 42.5971 0.832 43.0238 0.832C43.4611 0.821333 43.9784 0.815999 44.5758 0.815999ZM42.2718 0.959999V12H40.6878V0.959999H42.2718ZM52.0965 4.192V12H50.5765V4.192H52.0965ZM51.6965 0.848C52.0058 0.848 52.1605 1.00267 52.1605 1.312V2.224C52.1605 2.53333 52.0058 2.688 51.6965 2.688H50.9765C50.6672 2.688 50.5125 2.53333 50.5125 2.224V1.312C50.5125 1.00267 50.6672 0.848 50.9765 0.848H51.6965ZM57.7274 4C58.57 4 59.2367 4.08533 59.7274 4.256C60.2287 4.416 60.586 4.68267 60.7994 5.056C61.0127 5.41867 61.1194 5.89333 61.1194 6.48C61.1194 7.04533 61.0127 7.51467 60.7994 7.888C60.586 8.25067 60.2287 8.52267 59.7274 8.704C59.226 8.87467 58.554 8.96 57.7114 8.96C56.858 8.96 56.1807 8.87467 55.6794 8.704C55.1887 8.52267 54.8367 8.25067 54.6234 7.888C54.41 7.52533 54.3034 7.06133 54.3034 6.496C54.3034 5.89867 54.41 5.41867 54.6234 5.056C54.8367 4.68267 55.194 4.416 55.6954 4.256C56.1967 4.08533 56.874 4 57.7274 4ZM57.7114 5.104C56.9647 5.104 56.4474 5.21067 56.1594 5.424C55.8714 5.62667 55.7274 5.97867 55.7274 6.48C55.7274 6.97067 55.8714 7.32267 56.1594 7.536C56.4474 7.74933 56.9647 7.856 57.7114 7.856C58.458 7.856 58.97 7.74933 59.2474 7.536C59.5354 7.32267 59.6794 6.97067 59.6794 6.48C59.6794 5.97867 59.5354 5.62667 59.2474 5.424C58.97 5.21067 58.458 5.104 57.7114 5.104ZM62.0314 4.192L61.9514 4.992L59.9354 5.168L59.3754 4.192H62.0314ZM55.4874 8.464L56.3354 8.576C56.1647 8.72533 56.0474 8.912 55.9834 9.136C55.9194 9.36 55.9354 9.56267 56.0314 9.744C56.1274 9.92533 56.3407 10.0427 56.6714 10.096L59.5834 10.544C60.33 10.64 60.8527 10.8693 61.1514 11.232C61.45 11.584 61.5994 12.0907 61.5994 12.752C61.5994 13.3813 61.4767 13.872 61.2314 14.224C60.9967 14.576 60.602 14.8267 60.0474 14.976C59.4927 15.1253 58.746 15.2 57.8074 15.2C57.0714 15.2 56.458 15.1573 55.9674 15.072C55.4767 14.9973 55.082 14.864 54.7834 14.672C54.4954 14.4907 54.2874 14.2507 54.1594 13.952C54.0314 13.6533 53.9674 13.2853 53.9674 12.848C53.9674 12.5067 54.0154 12.2187 54.1114 11.984C54.218 11.7493 54.3887 11.5413 54.6234 11.36C54.858 11.1787 55.162 11.0027 55.5354 10.832L56.5434 10.336L57.2154 10.576L56.4474 11.136C56.2234 11.296 56.0367 11.456 55.8874 11.616C55.7487 11.7653 55.642 11.92 55.5674 12.08C55.4927 12.2507 55.4554 12.4533 55.4554 12.688C55.4554 13.0293 55.5194 13.2907 55.6474 13.472C55.786 13.6533 56.026 13.776 56.3674 13.84C56.7087 13.904 57.1834 13.936 57.7914 13.936C58.3994 13.936 58.8687 13.8987 59.1994 13.824C59.53 13.76 59.7594 13.6373 59.8874 13.456C60.026 13.2853 60.0954 13.0347 60.0954 12.704C60.0954 12.448 60.058 12.2507 59.9834 12.112C59.9194 11.984 59.7914 11.888 59.5994 11.824C59.4074 11.7493 59.13 11.6853 58.7674 11.632L56.0314 11.28C55.6794 11.2373 55.402 11.1307 55.1994 10.96C54.9967 10.7787 54.8527 10.5707 54.7674 10.336C54.6927 10.0907 54.6714 9.85067 54.7034 9.616C54.746 9.37067 54.8314 9.14133 54.9594 8.928C55.098 8.71467 55.274 8.56 55.4874 8.464ZM68.4238 4C69.8424 4 70.5518 4.71467 70.5518 6.144V12H68.9838V6.592C68.9838 6.10133 68.9038 5.76533 68.7438 5.584C68.5944 5.392 68.3278 5.296 67.9438 5.296C67.4851 5.296 67.0264 5.40267 66.5677 5.616C66.1091 5.81867 65.5598 6.12267 64.9198 6.528L64.8398 5.504C65.4371 5.03467 66.0344 4.66667 66.6318 4.4C67.2398 4.13333 67.8371 4 68.4238 4ZM65.0798 0.799999L65.0958 3.824C65.0958 4.18667 65.0798 4.528 65.0478 4.848C65.0264 5.168 64.9838 5.45067 64.9198 5.696L65.0798 5.92V12H63.5438V0.799999H65.0798ZM75.0631 1.904V9.776C75.0631 10.1387 75.1378 10.4 75.2871 10.56C75.4471 10.7093 75.7138 10.784 76.0871 10.784H77.2391L77.4151 11.92C77.2338 11.9733 77.0258 12.016 76.7911 12.048C76.5671 12.08 76.3378 12.1013 76.1031 12.112C75.8791 12.1333 75.6978 12.144 75.5591 12.144C74.8978 12.144 74.3911 11.9627 74.0391 11.6C73.6871 11.2373 73.5111 10.7147 73.5111 10.032V1.904H75.0631ZM77.4951 4.192V5.344H72.1031V4.272L73.6391 4.192H77.4951ZM81.747 4C82.0883 4 82.4563 4.01067 82.851 4.032C83.2457 4.05333 83.635 4.08 84.019 4.112C84.4137 4.144 84.771 4.18667 85.091 4.24L84.979 5.328C84.4777 5.30667 83.9763 5.29067 83.475 5.28C82.9843 5.25867 82.4937 5.248 82.003 5.248C81.5337 5.23733 81.1657 5.248 80.899 5.28C80.6323 5.312 80.4403 5.392 80.323 5.52C80.2057 5.648 80.147 5.86667 80.147 6.176C80.147 6.54933 80.2377 6.79467 80.419 6.912C80.611 7.02933 80.8937 7.13067 81.267 7.216L83.491 7.728C84.1203 7.888 84.5843 8.12267 84.883 8.432C85.1817 8.74133 85.331 9.232 85.331 9.904C85.331 10.544 85.2083 11.0293 84.963 11.36C84.7283 11.68 84.3603 11.8933 83.859 12C83.3577 12.1173 82.723 12.176 81.955 12.176C81.667 12.176 81.235 12.1653 80.659 12.144C80.0937 12.1227 79.4697 12.0533 78.787 11.936L78.899 10.864C79.1443 10.8747 79.411 10.8853 79.699 10.896C79.987 10.9067 80.291 10.912 80.611 10.912C80.9417 10.912 81.2723 10.912 81.603 10.912C82.179 10.912 82.627 10.8907 82.947 10.848C83.2777 10.7947 83.507 10.6987 83.635 10.56C83.7737 10.4107 83.843 10.192 83.843 9.904C83.843 9.552 83.731 9.31733 83.507 9.2C83.2937 9.072 83.0003 8.96533 82.627 8.88L80.435 8.368C79.987 8.26133 79.6297 8.11733 79.363 7.936C79.107 7.744 78.9203 7.50933 78.803 7.232C78.6963 6.944 78.643 6.58667 78.643 6.16C78.643 5.56267 78.7497 5.10933 78.963 4.8C79.1763 4.48 79.507 4.26667 79.955 4.16C80.4137 4.04267 81.011 3.98933 81.747 4ZM94.8414 0.815999C95.716 0.815999 96.42 0.911999 96.9534 1.104C97.4974 1.28533 97.892 1.61067 98.1374 2.08C98.3827 2.53867 98.5054 3.184 98.5054 4.016C98.5054 4.60267 98.436 5.09333 98.2974 5.488C98.1587 5.88267 97.94 6.192 97.6414 6.416C97.3534 6.64 96.9587 6.784 96.4574 6.848V6.928C96.6387 6.97067 96.82 7.056 97.0014 7.184C97.1827 7.312 97.3534 7.488 97.5134 7.712C97.6734 7.92533 97.7907 8.19733 97.8654 8.528L98.9054 12H97.2094L96.2494 8.56C96.1214 8.15467 95.9454 7.86667 95.7214 7.696C95.4974 7.52533 95.204 7.44 94.8414 7.44C94.1694 7.44 93.5934 7.44 93.1134 7.44C92.6334 7.42933 92.228 7.41867 91.8974 7.408C91.5774 7.39733 91.316 7.392 91.1134 7.392L91.1614 6.112H94.8094C95.332 6.10133 95.7427 6.04267 96.0414 5.936C96.34 5.81867 96.5534 5.616 96.6814 5.328C96.82 5.04 96.8894 4.63467 96.8894 4.112C96.8894 3.58933 96.82 3.18933 96.6814 2.912C96.5534 2.624 96.34 2.42667 96.0414 2.32C95.7427 2.20267 95.332 2.144 94.8094 2.144C93.9134 2.144 93.14 2.14933 92.4894 2.16C91.8387 2.17067 91.4014 2.176 91.1774 2.176L90.9534 0.959999C91.3587 0.917333 91.7427 0.885333 92.1054 0.863999C92.468 0.842666 92.8627 0.832 93.2894 0.832C93.7267 0.821333 94.244 0.815999 94.8414 0.815999ZM92.5374 0.959999V12H90.9534V0.959999H92.5374ZM103.996 4C105.201 4 106.071 4.21867 106.604 4.656C107.148 5.08267 107.42 5.71733 107.42 6.56C107.431 7.264 107.276 7.808 106.956 8.192C106.647 8.576 106.14 8.768 105.436 8.768H100.924V7.664H105.036C105.388 7.664 105.617 7.552 105.724 7.328C105.831 7.104 105.884 6.848 105.884 6.56C105.873 6.08 105.729 5.73867 105.452 5.536C105.185 5.33333 104.721 5.232 104.06 5.232C103.516 5.232 103.089 5.312 102.78 5.472C102.471 5.632 102.252 5.90933 102.124 6.304C102.007 6.69867 101.948 7.25333 101.948 7.968C101.948 8.768 102.023 9.38133 102.172 9.808C102.332 10.224 102.583 10.512 102.924 10.672C103.276 10.832 103.74 10.912 104.316 10.912C104.721 10.912 105.175 10.896 105.676 10.864C106.188 10.8213 106.652 10.7733 107.068 10.72L107.228 11.728C106.972 11.8347 106.663 11.9253 106.3 12C105.937 12.064 105.564 12.112 105.18 12.144C104.796 12.176 104.444 12.192 104.124 12.192C103.207 12.192 102.471 12.0533 101.916 11.776C101.361 11.4987 100.956 11.0613 100.7 10.464C100.444 9.856 100.316 9.06133 100.316 8.08C100.316 7.056 100.444 6.24533 100.7 5.648C100.956 5.05067 101.356 4.62933 101.9 4.384C102.444 4.128 103.143 4 103.996 4ZM112.044 4C112.385 4 112.753 4.01067 113.148 4.032C113.543 4.05333 113.932 4.08 114.316 4.112C114.711 4.144 115.068 4.18667 115.388 4.24L115.276 5.328C114.775 5.30667 114.273 5.29067 113.772 5.28C113.281 5.25867 112.791 5.248 112.3 5.248C111.831 5.23733 111.463 5.248 111.196 5.28C110.929 5.312 110.737 5.392 110.62 5.52C110.503 5.648 110.444 5.86667 110.444 6.176C110.444 6.54933 110.535 6.79467 110.716 6.912C110.908 7.02933 111.191 7.13067 111.564 7.216L113.788 7.728C114.417 7.888 114.881 8.12267 115.18 8.432C115.479 8.74133 115.628 9.232 115.628 9.904C115.628 10.544 115.505 11.0293 115.26 11.36C115.025 11.68 114.657 11.8933 114.156 12C113.655 12.1173 113.02 12.176 112.252 12.176C111.964 12.176 111.532 12.1653 110.956 12.144C110.391 12.1227 109.767 12.0533 109.084 11.936L109.196 10.864C109.441 10.8747 109.708 10.8853 109.996 10.896C110.284 10.9067 110.588 10.912 110.908 10.912C111.239 10.912 111.569 10.912 111.9 10.912C112.476 10.912 112.924 10.8907 113.244 10.848C113.575 10.7947 113.804 10.6987 113.932 10.56C114.071 10.4107 114.14 10.192 114.14 9.904C114.14 9.552 114.028 9.31733 113.804 9.2C113.591 9.072 113.297 8.96533 112.924 8.88L110.732 8.368C110.284 8.26133 109.927 8.11733 109.66 7.936C109.404 7.744 109.217 7.50933 109.1 7.232C108.993 6.944 108.94 6.58667 108.94 6.16C108.94 5.56267 109.047 5.10933 109.26 4.8C109.473 4.48 109.804 4.26667 110.252 4.16C110.711 4.04267 111.308 3.98933 112.044 4ZM120.855 4C122.061 4 122.93 4.21867 123.463 4.656C124.007 5.08267 124.279 5.71733 124.279 6.56C124.29 7.264 124.135 7.808 123.815 8.192C123.506 8.576 122.999 8.768 122.295 8.768H117.783V7.664H121.895C122.247 7.664 122.477 7.552 122.583 7.328C122.69 7.104 122.743 6.848 122.743 6.56C122.733 6.08 122.589 5.73867 122.311 5.536C122.045 5.33333 121.581 5.232 120.919 5.232C120.375 5.232 119.949 5.312 119.639 5.472C119.33 5.632 119.111 5.90933 118.983 6.304C118.866 6.69867 118.807 7.25333 118.807 7.968C118.807 8.768 118.882 9.38133 119.031 9.808C119.191 10.224 119.442 10.512 119.783 10.672C120.135 10.832 120.599 10.912 121.175 10.912C121.581 10.912 122.034 10.896 122.535 10.864C123.047 10.8213 123.511 10.7733 123.927 10.72L124.087 11.728C123.831 11.8347 123.522 11.9253 123.159 12C122.797 12.064 122.423 12.112 122.039 12.144C121.655 12.176 121.303 12.192 120.983 12.192C120.066 12.192 119.33 12.0533 118.775 11.776C118.221 11.4987 117.815 11.0613 117.559 10.464C117.303 9.856 117.175 9.06133 117.175 8.08C117.175 7.056 117.303 6.24533 117.559 5.648C117.815 5.05067 118.215 4.62933 118.759 4.384C119.303 4.128 120.002 4 120.855 4ZM127.431 4.192L127.623 5.696L127.767 5.92V12H126.231V4.192H127.431ZM131.255 4L131.095 5.44H130.599C130.162 5.44 129.714 5.52533 129.255 5.696C128.807 5.86667 128.258 6.112 127.607 6.432L127.495 5.488C128.061 5.01867 128.631 4.656 129.207 4.4C129.794 4.13333 130.359 4 130.903 4H131.255ZM139.851 4.192L137.051 11.616C136.998 11.7333 136.923 11.8293 136.827 11.904C136.742 11.968 136.635 12 136.507 12H135.131C135.003 12 134.891 11.968 134.795 11.904C134.71 11.8293 134.641 11.7333 134.587 11.616L131.787 4.192H133.435L135.275 9.552C135.361 9.776 135.435 10.0053 135.499 10.24C135.574 10.4747 135.643 10.704 135.707 10.928H135.915C136.001 10.6933 136.081 10.464 136.155 10.24C136.23 10.0053 136.305 9.776 136.379 9.552L138.203 4.192H139.851ZM144.512 4C145.717 4 146.586 4.21867 147.12 4.656C147.664 5.08267 147.936 5.71733 147.936 6.56C147.946 7.264 147.792 7.808 147.472 8.192C147.162 8.576 146.656 8.768 145.952 8.768H141.44V7.664H145.552C145.904 7.664 146.133 7.552 146.24 7.328C146.346 7.104 146.4 6.848 146.4 6.56C146.389 6.08 146.245 5.73867 145.968 5.536C145.701 5.33333 145.237 5.232 144.576 5.232C144.032 5.232 143.605 5.312 143.296 5.472C142.986 5.632 142.768 5.90933 142.64 6.304C142.522 6.69867 142.464 7.25333 142.464 7.968C142.464 8.768 142.538 9.38133 142.688 9.808C142.848 10.224 143.098 10.512 143.44 10.672C143.792 10.832 144.256 10.912 144.832 10.912C145.237 10.912 145.69 10.896 146.192 10.864C146.704 10.8213 147.168 10.7733 147.584 10.72L147.744 11.728C147.488 11.8347 147.178 11.9253 146.816 12C146.453 12.064 146.08 12.112 145.696 12.144C145.312 12.176 144.96 12.192 144.64 12.192C143.722 12.192 142.986 12.0533 142.432 11.776C141.877 11.4987 141.472 11.0613 141.216 10.464C140.96 9.856 140.832 9.06133 140.832 8.08C140.832 7.056 140.96 6.24533 141.216 5.648C141.472 5.05067 141.872 4.62933 142.416 4.384C142.96 4.128 143.658 4 144.512 4ZM152.496 4C153.018 4 153.53 4.06933 154.032 4.208C154.533 4.336 155.008 4.54933 155.456 4.848L155.36 5.744C154.89 5.59467 154.469 5.47733 154.096 5.392C153.733 5.30667 153.338 5.264 152.911 5.264C152.485 5.264 152.138 5.33867 151.872 5.488C151.616 5.63733 151.424 5.91467 151.296 6.32C151.178 6.72533 151.12 7.30133 151.12 8.048C151.12 8.784 151.178 9.36 151.296 9.776C151.413 10.1813 151.6 10.464 151.856 10.624C152.112 10.784 152.437 10.864 152.832 10.864C153.13 10.864 153.402 10.8267 153.648 10.752C153.893 10.6773 154.149 10.5547 154.416 10.384C154.682 10.2133 154.997 10 155.36 9.744L155.488 10.736C155.082 11.1413 154.608 11.488 154.064 11.776C153.53 12.0533 152.938 12.192 152.288 12.192C151.306 12.192 150.602 11.8453 150.176 11.152C149.749 10.448 149.536 9.41867 149.536 8.064C149.536 7.04 149.642 6.23467 149.856 5.648C150.08 5.05067 150.41 4.62933 150.848 4.384C151.285 4.128 151.834 4 152.496 4ZM156.72 0.799999V12H155.504L155.328 10.624L155.168 10.496V5.184L155.264 4.944C155.221 4.64533 155.194 4.352 155.184 4.064C155.173 3.776 155.168 3.472 155.168 3.152V0.799999H156.72Z" fill="#AFB2B6"/>
</svg>
